<?xml version="1.0" encoding="utf-8"?>
<!-- Generator: Adobe Illustrator 25.0.0, SVG Export Plug-In . SVG Version: 6.00 Build 0)  -->
<svg version="1.1" xmlns="http://www.w3.org/2000/svg" xmlns:xlink="http://www.w3.org/1999/xlink" x="0px" y="0px"
	 viewBox="0 0 396.9 283.5" style="enable-background:new 0 0 396.9 283.5;" xml:space="preserve">
<style type="text/css">
	.st0{fill:#009EFF;stroke:#009EFF;stroke-linejoin:round;stroke-miterlimit:10;}
	.st1{fill:#FFFFFF;}
	.st2{font-family:'AdobeSongStd-Light-GBpc-EUC-H';}
	.st3{font-size:12px;}
	.st4{fill:none;stroke:#000000;stroke-miterlimit:10;}
	.st5{fill:none;stroke:#000000;stroke-width:3;stroke-miterlimit:10;}
</style>
<g id="图层_1">
	<rect x="7.2" y="134.4" class="st0" width="68.1" height="14.6"/>
	<text transform="matrix(1 0 0 1 21.7057 146.0263)" class="st1 st2 st3">客户端</text>
	<rect x="319.5" y="134.4" class="st0" width="68.1" height="14.6"/>
	<text transform="matrix(1 0 0 1 334.0679 146.0263)" class="st1 st2 st3">服务端</text>
	<line class="st4" x1="85.7" y1="13.7" x2="85.7" y2="270"/>
	<line class="st4" x1="310.9" y1="13.7" x2="310.9" y2="270"/>
</g>
<g id="图层_2">
	<g>
		<g>
			<line class="st5" x1="90.8" y1="44.8" x2="302.2" y2="108.2"/>
			<g>
				<path d="M308.9,110.2c-3.5,0.2-8.1,1.1-11.2,2.5l3.5-4.8l-0.3-5.9C302.8,104.9,306.1,108.1,308.9,110.2z"/>
			</g>
		</g>
	</g>
	<text transform="matrix(0.9578 0.2875 -0.2875 0.9578 142.8177 49.9989)" class="st2 st3">请求连接(SYN数据包)</text>
	<text transform="matrix(0.9668 -0.2554 0.2554 0.9668 122.3864 162.7843)" class="st2 st3">确认信息(SYN/ACK数据包)</text>
	<g>
		<g>
			<line class="st5" x1="308.3" y1="121.8" x2="95" y2="178.2"/>
			<g>
				<path d="M88.2,180c2.9-2,6.3-5.1,8.2-7.9l-0.5,5.9l3.4,4.9C96.3,181.3,91.7,180.4,88.2,180z"/>
			</g>
		</g>
	</g>
	<g>
		<g>
			<line class="st5" x1="89.4" y1="190" x2="300.7" y2="253.4"/>
			<g>
				<path d="M307.5,255.4c-3.5,0.2-8.1,1.1-11.2,2.5l3.5-4.8l-0.3-5.9C301.3,250.1,304.6,253.3,307.5,255.4z"/>
			</g>
		</g>
	</g>
	<text transform="matrix(0.9578 0.2875 -0.2875 0.9578 144.9459 199.7869)" class="st2 st3">握手结束(ACK数据包)</text>
</g>
</svg>
