<svg xmlns="http://www.w3.org/2000/svg" viewBox="0 0 720 400"><defs><style>.cls-1,.cls-24,.cls-8{fill:#fff;}.cls-10,.cls-11,.cls-13,.cls-15,.cls-17,.cls-18,.cls-2,.cls-20,.cls-22,.cls-23{fill:none;stroke-miterlimit:10;}.cls-17,.cls-18,.cls-2{stroke:#20a3d1;stroke-width:0.5px;}.cls-21,.cls-3,.cls-4,.cls-5,.cls-6,.cls-8{font-size:12px;}.cls-19,.cls-21,.cls-24,.cls-3,.cls-4,.cls-5,.cls-6,.cls-8{font-family:SimHei;}.cls-14,.cls-4{fill:#0dd362;}.cls-12,.cls-5{fill:#c99217;}.cls-16,.cls-6{fill:#f40006;}.cls-7{fill:#aad85b;}.cls-9{fill:#5ca1ff;}.cls-10,.cls-11,.cls-20,.cls-22,.cls-23{stroke:#c99217;}.cls-11{stroke-dasharray:1.48 1.48;}.cls-13{stroke:#0dd362;}.cls-15{stroke:#f40006;}.cls-17{stroke-dasharray:1.51 1.51;}.cls-18{stroke-dasharray:1.5 1.5;}.cls-19{font-size:14px;}.cls-20{stroke-dasharray:1.51 1.51;}.cls-21{fill:#fcfcfc;}.cls-22{stroke-dasharray:1.51 1.51;}.cls-23{stroke-dasharray:1.48 1.48;}.cls-24{font-size:10px;}</style></defs><g id="图层_31" data-name="图层 31"><rect class="cls-1" x="0.13" y="-0.39" width="720" height="400"/></g><g id="图例"><g id="图层_37" data-name="图层 37"><g id="图层_43" data-name="图层 43"><path class="cls-2" d="M656.29,382.3a4.15,4.15,0,0,1-2.67-1.65c-.67-1.12-.36-2.69-1.12-2.89a1.15,1.15,0,0,0-.24,0"/><path class="cls-2" d="M656.29,382.3a4.15,4.15,0,0,0-2.67,1.65c-.67,1.12-.36,2.69-1.12,2.89a.72.72,0,0,1-.24,0"/><text class="cls-3" transform="translate(666.17 385.87)">作为函数</text></g><text class="cls-3" transform="translate(666.86 359.21)">作为对象</text><g id="图层_42" data-name="图层 42"><path class="cls-2" d="M659.72,357.8c-3.22-1.12-4.65-2.79-5.33-4.24-1.35-2.87-.71-6.88-2.24-7.4a.93.93,0,0,0-.48,0"/><path class="cls-2" d="M659.72,357.8c-3.22,1.13-4.65,2.79-5.33,4.24-1.35,2.87-.71,6.89-2.24,7.41a1.22,1.22,0,0,1-.48,0"/></g><text class="cls-4" transform="translate(582.01 385.87)">prototype</text><text class="cls-5" transform="translate(581.59 370.25)">constructor</text><text class="cls-6" transform="translate(583.3 349.93)">__proto__</text><g id="图层_41" data-name="图层 41"><path class="cls-2" d="M571.85,366.75a10.6,10.6,0,0,0,5.33-6.49c1.35-4.39.71-10.53,2.24-11.32a.68.68,0,0,1,.48-.07"/><path class="cls-2" d="M571.85,366.75a10.62,10.62,0,0,1,5.33,6.49c1.35,4.39.71,10.53,2.24,11.33a.72.72,0,0,0,.48.06"/></g><g id="图层_39" data-name="图层 39"><rect class="cls-7" x="535.62" y="356.75" width="35.03" height="20"/><text class="cls-8" transform="translate(541.85 370.25)">函数</text></g></g><g id="图层_36" data-name="图层 36"><text class="cls-6" transform="translate(584.64 307.75)">__proto__</text><g id="图层_40" data-name="图层 40"><path class="cls-2" d="M570.65,317.75c3.22-1,4.65-2.53,5.33-3.85,1.34-2.6.71-6.24,2.24-6.71a1.22,1.22,0,0,1,.48,0"/><path class="cls-2" d="M570.65,317.75c3.22,1,4.65,2.53,5.33,3.84,1.34,2.6.71,6.25,2.24,6.72a1,1,0,0,0,.48,0"/></g><g id="图层_38" data-name="图层 38"><rect class="cls-9" x="535.62" y="307.75" width="35.03" height="20"/><text class="cls-8" transform="translate(541.85 321.25)">对象</text></g><text class="cls-5" transform="translate(584.64 331.74)">constructor</text></g><g id="图层_35" data-name="图层 35"><line class="cls-10" x1="609.34" y1="274.7" x2="610.09" y2="274.7"/><line class="cls-11" x1="611.58" y1="274.7" x2="676.13" y2="274.7"/><line class="cls-10" x1="676.87" y1="274.7" x2="677.62" y2="274.7"/><polygon class="cls-12" points="676.89 277.2 681.21 274.7 676.89 272.21 676.89 277.2"/><text class="cls-5" transform="translate(583.3 269.65)">继承而来的constructor</text></g><g id="图层_34" data-name="图层 34"><line class="cls-10" x1="610.49" y1="252.73" x2="677.62" y2="252.73"/><polygon class="cls-12" points="676.89 255.22 681.21 252.73 676.89 250.24 676.89 255.22"/><text class="cls-5" transform="translate(613.34 247.68)">constructor</text></g><g id="图层_33" data-name="图层 33"><line class="cls-13" x1="610.49" y1="233.18" x2="677.62" y2="233.18"/><polygon class="cls-14" points="676.89 235.67 681.21 233.18 676.89 230.68 676.89 235.67"/><text class="cls-4" transform="translate(613.34 228.12)">prototype</text></g><g id="图层_32" data-name="图层 32"><line class="cls-15" x1="609.34" y1="211.97" x2="677.62" y2="211.97"/><polygon class="cls-16" points="676.89 214.47 681.21 211.97 676.89 209.48 676.89 214.47"/><text class="cls-6" transform="translate(612.18 206.92)">__proto__</text></g></g><g id="图层_29" data-name="图层 29"><polyline class="cls-2" points="246.23 347.6 246.23 348.35 245.48 348.35"/><line class="cls-17" x1="243.97" y1="348.35" x2="117.56" y2="348.35"/><polyline class="cls-2" points="116.8 348.35 116.05 348.35 116.05 347.6"/><line class="cls-18" x1="116.05" y1="346.1" x2="116.05" y2="28.19"/><polyline class="cls-2" points="116.05 27.44 116.05 26.69 116.8 26.69"/><line class="cls-17" x1="118.31" y1="26.69" x2="244.73" y2="26.69"/><polyline class="cls-2" points="245.48 26.69 246.23 26.69 246.23 27.44"/><line class="cls-18" x1="246.23" y1="28.94" x2="246.23" y2="346.85"/><text class="cls-19" transform="translate(143.98 371.55) scale(0.92 1)">这就是原型链</text></g><g id="图层_28" data-name="图层 28"><path d="M8,144.82v-1.19h3.27v1.19Zm.7,5.91v-8.06a2.16,2.16,0,0,1,.39-1.41,1.52,1.52,0,0,1,1.24-.47h.94v1.32h-.92a.31.31,0,0,0-.28.16.79.79,0,0,0-.09.38v8.08Z"/><path d="M13.62,143.63v4.31A1.75,1.75,0,0,0,14,149.1a1.22,1.22,0,0,0,1,.4,1.28,1.28,0,0,0,1-.36,1.46,1.46,0,0,0,.35-1l.08,1.48a2,2,0,0,1-.61.86,1.73,1.73,0,0,1-1.15.38,2,2,0,0,1-1.67-.76,3.33,3.33,0,0,1-.59-2.13v-4.31Zm2.66,7.1v-7.1h1.27v7.1Z"/><path d="M19.5,150.73v-7.1h1.28v7.1Zm4,0v-4.3a1.79,1.79,0,0,0-.35-1.17,1.45,1.45,0,0,0-2,0,1.42,1.42,0,0,0-.35,1l-.13-1.37a2.48,2.48,0,0,1,.79-1,1.79,1.79,0,0,1,1.08-.35,1.94,1.94,0,0,1,1.64.75,3.45,3.45,0,0,1,.59,2.14v4.31Z"/><path d="M29.33,150.83a2.66,2.66,0,0,1-2.08-.81,3.2,3.2,0,0,1-.74-2.27v-1.17a3.19,3.19,0,0,1,.74-2.26,2.68,2.68,0,0,1,2.08-.79,3.25,3.25,0,0,1,1.38.29,2.47,2.47,0,0,1,1,.84l-.93.91a1.82,1.82,0,0,0-1.42-.72,1.45,1.45,0,0,0-1.15.46,1.83,1.83,0,0,0-.41,1.27v1.17A1.87,1.87,0,0,0,28.2,149a1.45,1.45,0,0,0,1.15.46,1.56,1.56,0,0,0,.78-.2,1.79,1.79,0,0,0,.64-.56l.93,1a2.51,2.51,0,0,1-1,.83A3.25,3.25,0,0,1,29.33,150.83Z"/><path d="M32.61,144.89v-1.26h2.94v1.26Zm2.2,5.87a1.37,1.37,0,0,1-1.17-.48,2.34,2.34,0,0,1-.36-1.4v-7.31h1.28v7.32a.74.74,0,0,0,.1.4.29.29,0,0,0,.28.14h.61v1.33Z"/><path d="M37.31,142.18v-1.39h1.28v1.39Zm0,8.55v-7.1h1.28v7.1Z"/><path d="M43.05,150.83a2.49,2.49,0,0,1-2-.81,3.36,3.36,0,0,1-.7-2.28v-1.16a3.28,3.28,0,0,1,.7-2.25,2.88,2.88,0,0,1,4,0,3.33,3.33,0,0,1,.7,2.25v1.18A3.4,3.4,0,0,1,45,150,2.53,2.53,0,0,1,43.05,150.83Zm0-1.33a1.25,1.25,0,0,0,1-.46,2,2,0,0,0,.37-1.28v-1.18a2,2,0,0,0-.37-1.27,1.41,1.41,0,0,0-2.08,0,1.92,1.92,0,0,0-.37,1.27v1.18A2,2,0,0,0,42,149,1.25,1.25,0,0,0,43.05,149.5Z"/><path d="M47.56,150.73v-7.1h1.29v7.1Zm4,0v-4.3a1.74,1.74,0,0,0-.36-1.17,1.45,1.45,0,0,0-2,0,1.41,1.41,0,0,0-.34,1l-.14-1.37a2.57,2.57,0,0,1,.79-1,1.79,1.79,0,0,1,1.08-.35,2,2,0,0,1,1.65.75,3.51,3.51,0,0,1,.58,2.14v4.31Z"/><path d="M58.34,150.73v-9.94h1.29v9.94Zm.63-8.62v-1.32H64.1v1.32Zm0,4.43v-1.32h4.44v1.32Z"/><path d="M67.92,150.83a2.51,2.51,0,0,1-2-.81,3.36,3.36,0,0,1-.7-2.28v-1.16a3.28,3.28,0,0,1,.7-2.25,2.88,2.88,0,0,1,4,0,3.28,3.28,0,0,1,.7,2.25v1.18a3.35,3.35,0,0,1-.7,2.27A2.52,2.52,0,0,1,67.92,150.83Zm0-1.33a1.24,1.24,0,0,0,1-.46,2,2,0,0,0,.37-1.28v-1.18a1.92,1.92,0,0,0-.37-1.27,1.24,1.24,0,0,0-1-.46,1.26,1.26,0,0,0-1,.46,2,2,0,0,0-.37,1.27v1.18a2,2,0,0,0,.37,1.28A1.26,1.26,0,0,0,67.92,149.5Z"/><path d="M74.94,150.83a2.49,2.49,0,0,1-2-.81,3.36,3.36,0,0,1-.7-2.28v-1.16a3.28,3.28,0,0,1,.7-2.25,2.88,2.88,0,0,1,4,0,3.28,3.28,0,0,1,.7,2.25v1.18a3.35,3.35,0,0,1-.7,2.27A2.53,2.53,0,0,1,74.94,150.83Zm0-1.33a1.25,1.25,0,0,0,1-.46,2,2,0,0,0,.37-1.28v-1.18a1.92,1.92,0,0,0-.37-1.27,1.25,1.25,0,0,0-1-.46,1.26,1.26,0,0,0-1,.46,1.92,1.92,0,0,0-.37,1.27v1.18A2,2,0,0,0,73.9,149,1.26,1.26,0,0,0,74.94,149.5Z"/><path d="M81.81,152.87a9.13,9.13,0,0,1-1.67-3,11.95,11.95,0,0,1,0-7.23,9.08,9.08,0,0,1,1.67-3l.88.87a8,8,0,0,0-1.42,2.57,10.66,10.66,0,0,0,0,6.26A8.09,8.09,0,0,0,82.69,152Z"/><path d="M83.83,152.87,83,152a8.09,8.09,0,0,0,1.42-2.57,10.66,10.66,0,0,0,0-6.26A8,8,0,0,0,83,140.6l.88-.87a9.08,9.08,0,0,1,1.67,3,11.95,11.95,0,0,1,0,7.23A9.13,9.13,0,0,1,83.83,152.87Z"/><path d="M88.07,147v-1.33a1.1,1.1,0,0,0,.79-.27,1,1,0,0,0,.28-.77v-2.8a2.71,2.71,0,0,1,.64-1.93,2.34,2.34,0,0,1,1.8-.68v1.33a1.14,1.14,0,0,0-.85.29,1.08,1.08,0,0,0-.31.83v3A2.14,2.14,0,0,1,88.07,147Zm3.51,6.45a2.31,2.31,0,0,1-1.8-.68,2.7,2.7,0,0,1-.64-1.92V148a1,1,0,0,0-.28-.78,1.1,1.1,0,0,0-.79-.27v-1.33a2.33,2.33,0,0,1,1.74.64,2.51,2.51,0,0,1,.61,1.81V151a1.1,1.1,0,0,0,.31.84,1.14,1.14,0,0,0,.85.3Z"/><path d="M92.62,150.73v-1.47H94v1.47Z"/><path d="M95.54,150.73v-1.47h1.34v1.47Z"/><path d="M98.45,150.73v-1.47H99.8v1.47Z"/><path d="M104.35,147a2.14,2.14,0,0,1-2.35-2.37v-3a1.12,1.12,0,0,0-.31-.83,1.14,1.14,0,0,0-.85-.29v-1.33a2.37,2.37,0,0,1,1.8.68,2.71,2.71,0,0,1,.64,1.93v2.8a1,1,0,0,0,.28.77,1.08,1.08,0,0,0,.79.27Zm-3.51,6.45v-1.32A1.06,1.06,0,0,0,102,151v-2.87a2.51,2.51,0,0,1,.61-1.81,2.33,2.33,0,0,1,1.74-.64V147a1.08,1.08,0,0,0-.79.27,1,1,0,0,0-.28.78v2.8a2.7,2.7,0,0,1-.64,1.92A2.34,2.34,0,0,1,100.84,153.41Z"/><path d="M109,147a2.14,2.14,0,0,1-2.35-2.37v-3a1.08,1.08,0,0,0-.31-.83,1.14,1.14,0,0,0-.85-.29v-1.33a2.36,2.36,0,0,1,1.8.68,2.71,2.71,0,0,1,.64,1.93v2.8a1,1,0,0,0,.28.77,1.1,1.1,0,0,0,.79.27Zm-3.51,6.45v-1.32a1.14,1.14,0,0,0,.85-.3,1.1,1.1,0,0,0,.31-.84v-2.87a2.51,2.51,0,0,1,.61-1.81,2.33,2.33,0,0,1,1.74-.64V147a1.1,1.1,0,0,0-.79.27,1,1,0,0,0-.28.78v2.8a2.7,2.7,0,0,1-.64,1.92A2.32,2.32,0,0,1,105.48,153.41Z"/><path d="M9.79,157.59v8.1a.66.66,0,0,0,.11.4.31.31,0,0,0,.29.14h.6v1.33H10a1.37,1.37,0,0,1-1.13-.49,2.13,2.13,0,0,1-.4-1.39v-8.09Z"/><path d="M14.91,167.63a2.7,2.7,0,0,1-2.11-.83,3.37,3.37,0,0,1-.75-2.35v-.8a3.71,3.71,0,0,1,.72-2.45,2.49,2.49,0,0,1,2-.87,2.2,2.2,0,0,1,1.91,1,4.86,4.86,0,0,1,.67,2.76v.47H13v-1.12h3.18a2.54,2.54,0,0,0-.41-1.35,1.12,1.12,0,0,0-.95-.48,1.33,1.33,0,0,0-1.13.52,2.32,2.32,0,0,0-.4,1.47v.9a1.9,1.9,0,0,0,.43,1.35,1.54,1.54,0,0,0,1.21.47,1.76,1.76,0,0,0,.77-.17,2,2,0,0,0,.69-.48l.84.92a3.32,3.32,0,0,1-1.09.78A2.78,2.78,0,0,1,14.91,167.63Z"/><path d="M18.64,161.69v-1.26h2.94v1.26Zm2.2,5.87a1.38,1.38,0,0,1-1.17-.48,2.34,2.34,0,0,1-.36-1.4v-7.31H20.6v7.32a.74.74,0,0,0,.09.4.3.3,0,0,0,.28.14h.61v1.33Z"/><path d="M26.3,161.62v-1.19h3.26v1.19Zm.69,5.91v-8.06a2.1,2.1,0,0,1,.4-1.41,1.49,1.49,0,0,1,1.23-.47h.94v1.32h-.91a.32.32,0,0,0-.29.16.79.79,0,0,0-.09.38v8.08Z"/><path d="M33,157.59v9.94H31.75V159.1l-1.31.87v-1.44l1.31-.94Z"/><path d="M38.5,162.52V161.2h4.21v1.32Zm0,2.23v-1.33h4.21v1.33Z"/><path d="M48,167.53v-7.1h1.28v7.1Zm4,0v-4.3a1.74,1.74,0,0,0-.36-1.17,1.45,1.45,0,0,0-2,0,1.41,1.41,0,0,0-.34,1l-.13-1.37a2.4,2.4,0,0,1,.79-1,1.75,1.75,0,0,1,1.08-.35,2,2,0,0,1,1.64.75,3.45,3.45,0,0,1,.58,2.14v4.31Z"/><path d="M57.86,167.63a2.7,2.7,0,0,1-2.11-.83,3.37,3.37,0,0,1-.75-2.35v-.8a3.71,3.71,0,0,1,.72-2.45,2.49,2.49,0,0,1,2-.87,2.2,2.2,0,0,1,1.91,1,4.85,4.85,0,0,1,.68,2.76v.47H55.93v-1.12h3.19a2.54,2.54,0,0,0-.42-1.35,1.11,1.11,0,0,0-1-.48,1.32,1.32,0,0,0-1.12.52,2.32,2.32,0,0,0-.41,1.47v.9a2,2,0,0,0,.43,1.35,1.54,1.54,0,0,0,1.21.47,1.83,1.83,0,0,0,.78-.17,2.11,2.11,0,0,0,.68-.48l.85.92a3.54,3.54,0,0,1-1.09.78A2.82,2.82,0,0,1,57.86,167.63Z"/><path d="M63.29,167.53l-2-7.1h1.34l1.16,5.07,1.63-5.07h.89l1.63,5.07,1.15-5.07h1.34l-2,7.1h-1l-1.59-4.91-1.59,4.91Z"/><path d="M75.39,167.53v-9.94h1.29v9.94Zm.63-8.62v-1.32h5.13v1.32Zm0,4.43V162h4.44v1.32Z"/><path d="M85,167.63a2.51,2.51,0,0,1-2-.81,3.36,3.36,0,0,1-.7-2.28v-1.16a3.28,3.28,0,0,1,.7-2.25,2.88,2.88,0,0,1,4,0,3.28,3.28,0,0,1,.7,2.25v1.18a3.35,3.35,0,0,1-.7,2.27A2.52,2.52,0,0,1,85,167.63Zm0-1.33a1.24,1.24,0,0,0,1-.46,2,2,0,0,0,.37-1.28v-1.18a1.92,1.92,0,0,0-.37-1.27,1.24,1.24,0,0,0-1-.46,1.26,1.26,0,0,0-1,.46,2,2,0,0,0-.37,1.27v1.18a2,2,0,0,0,.37,1.28A1.26,1.26,0,0,0,85,166.3Z"/><path d="M92,167.63a2.49,2.49,0,0,1-2-.81,3.36,3.36,0,0,1-.7-2.28v-1.16a3.28,3.28,0,0,1,.7-2.25,2.88,2.88,0,0,1,4,0,3.28,3.28,0,0,1,.7,2.25v1.18a3.35,3.35,0,0,1-.7,2.27A2.53,2.53,0,0,1,92,167.63Zm0-1.33a1.25,1.25,0,0,0,1-.46,2,2,0,0,0,.37-1.28v-1.18a1.92,1.92,0,0,0-.37-1.27,1.41,1.41,0,0,0-2.08,0,1.92,1.92,0,0,0-.37,1.27v1.18a2,2,0,0,0,.37,1.28A1.25,1.25,0,0,0,92,166.3Z"/><path d="M98.86,169.67a9.13,9.13,0,0,1-1.67-3,11.95,11.95,0,0,1,0-7.23,9.08,9.08,0,0,1,1.67-2.95l.88.87A8,8,0,0,0,98.32,160a10.66,10.66,0,0,0,0,6.26,8.09,8.09,0,0,0,1.42,2.57Z"/><path d="M100.88,169.67l-.88-.87a8.09,8.09,0,0,0,1.42-2.57,10.66,10.66,0,0,0,0-6.26A8,8,0,0,0,100,157.4l.88-.87a9.08,9.08,0,0,1,1.67,2.95,11.95,11.95,0,0,1,0,7.23A9.13,9.13,0,0,1,100.88,169.67Z"/><path d="M105,161.83v-1.47h1.34v1.47Zm0,8v-3.74h1.34v2.22Z"/></g><g id="图层_14" data-name="图层 14"><g id="图层_25" data-name="图层 25"><line class="cls-10" x1="237.33" y1="241" x2="322.94" y2="241"/><polygon class="cls-12" points="322.21 243.49 326.53 241 322.21 238.51 322.21 243.49"/><text class="cls-5" transform="translate(251.4 250.98)">constructor</text></g><g id="图层_26" data-name="图层 26"><line class="cls-13" x1="240.92" y1="236" x2="326.53" y2="236"/><polygon class="cls-14" points="241.65 238.49 237.33 236 241.65 233.51 241.65 238.49"/><text class="cls-4" transform="translate(257.42 232.22)">prototype</text></g><g id="图层_24" data-name="图层 24"><line class="cls-10" x1="428.33" y1="235.28" x2="428.87" y2="234.75"/><line class="cls-20" x1="429.95" y1="233.71" x2="600.79" y2="68.71"/><line class="cls-10" x1="601.33" y1="68.18" x2="601.87" y2="67.66"/><polygon class="cls-12" points="603.08 69.96 604.45 65.17 599.61 66.38 603.08 69.96"/><text class="cls-5" transform="translate(509.44 173.03) rotate(-44.83)">constructor</text></g><g id="图层_23" data-name="图层 23"><line class="cls-16" x1="335.77" y1="156.52" x2="217.31" y2="227.22"/><line class="cls-15" x1="335.77" y1="156.52" x2="220.39" y2="225.38"/><polygon class="cls-16" points="219.74 222.86 217.31 227.22 222.29 227.14 219.74 222.86"/><text class="cls-6" transform="matrix(0.87, -0.49, 0.49, 0.87, 266.2, 208.7)">__proto__</text></g><g id="图层_22" data-name="图层 22"><line class="cls-10" x1="426.53" y1="145.45" x2="566.08" y2="65.47"/><polygon class="cls-12" points="566.68 68 569.19 63.69 564.2 63.67 566.68 68"/><text class="cls-5" transform="translate(472.86 132.3) rotate(-29.25)">constructor</text></g><g id="图层_21" data-name="图层 21"><line class="cls-16" x1="532.09" y1="63.68" x2="413.63" y2="134.38"/><line class="cls-15" x1="532.09" y1="63.68" x2="416.71" y2="132.54"/><polygon class="cls-16" points="416.06 130.03 413.63 134.38 418.61 134.31 416.06 130.03"/><text class="cls-6" transform="matrix(0.87, -0.49, 0.49, 0.87, 462.52, 115.86)">__proto__</text></g><g id="图层_20" data-name="图层 20"><line class="cls-13" x1="524.5" y1="62.62" x2="403.65" y2="133.63"/><polygon class="cls-14" points="403.01 131.11 400.55 135.45 405.54 135.41 403.01 131.11"/><text class="cls-4" transform="matrix(0.87, -0.49, 0.49, 0.87, 448.54, 100.63)">prototype</text></g><g id="图层_19" data-name="图层 19"><line class="cls-13" x1="355.74" y1="62.62" x2="225.39" y2="133.73"/><polygon class="cls-14" points="224.84 131.19 222.24 135.45 227.23 135.57 224.84 131.19"/><text class="cls-4" transform="translate(270.75 120.12) rotate(-27.1)">prototype</text></g><g id="图层_18" data-name="图层 18"><line class="cls-10" x1="208.28" y1="135.45" x2="338.02" y2="64.34"/><polygon class="cls-12" points="338.57 66.88 341.16 62.62 336.18 62.51 338.57 66.88"/><text class="cls-5" transform="translate(237.33 112.18) rotate(-27.1)">constructor</text></g><g id="Function_" data-name="Function()"><rect class="cls-7" x="519.19" y="42.62" width="100" height="20"/><text class="cls-21" transform="translate(544.1 56.98)">Function()</text></g><g id="图层_27" data-name="图层 27"><path class="cls-10" d="M619.49,51.69l.57.5"/><path class="cls-22" d="M621.23,53.15c13,10.22,28.52,7.81,34.74-1.46,4.71-7,3.95-17.73-.39-24.71-7.47-12-25.46-12.79-35.76-3.84-5.27,4.58-7.56,10.86-8.56,15.37"/><path class="cls-10" d="M611.1,39.24c-.05.25-.09.5-.14.73"/><polygon class="cls-12" points="608.64 38.9 610.5 43.53 613.58 39.61 608.64 38.9"/><text class="cls-5" transform="translate(650.17 14.71)">constructor</text></g><g id="图层_17" data-name="图层 17"><line class="cls-10" x1="428.26" y1="51.24" x2="429.01" y2="51.24"/><line class="cls-23" x1="430.49" y1="51.24" x2="512.38" y2="51.24"/><line class="cls-10" x1="513.12" y1="51.24" x2="513.87" y2="51.24"/><polygon class="cls-12" points="513.14 53.73 517.46 51.24 513.14 48.74 513.14 53.73"/><text class="cls-5" transform="translate(440.57 46.5)">constructor</text></g><g id="图层_16" data-name="图层 16"><line class="cls-10" x1="237.33" y1="51.49" x2="238.08" y2="51.49"/><line class="cls-23" x1="239.56" y1="51.49" x2="321.45" y2="51.49"/><line class="cls-10" x1="322.19" y1="51.49" x2="322.94" y2="51.49"/><polygon class="cls-12" points="322.21 53.99 326.53 51.49 322.21 49 322.21 53.99"/><text class="cls-5" transform="translate(249.64 46.76)">constructor</text></g></g><g id="图层_5" data-name="图层 5"><g id="Object_" data-name="Object()"><rect class="cls-7" x="326.53" y="228.28" width="100" height="20"/><text class="cls-21" transform="translate(355.41 242.64)">Object()</text></g><g id="图层_13" data-name="图层 13"><line class="cls-15" x1="376.53" y1="159.04" x2="376.53" y2="228.28"/><polygon class="cls-16" points="374.04 159.77 376.53 155.45 379.02 159.77 374.04 159.77"/><text class="cls-6" transform="translate(383.94 189.56)">__proto__</text></g><g id="Fun.prot"><rect class="cls-9" x="326.53" y="135.45" width="100" height="20"/><text class="cls-24" transform="translate(331.41 147.52)">Function.prototype</text></g><g id="图层_12" data-name="图层 12"><line class="cls-15" x1="376.53" y1="62.62" x2="376.53" y2="131.86"/><polygon class="cls-16" points="374.04 131.13 376.53 135.45 379.02 131.13 374.04 131.13"/><text class="cls-6" transform="translate(383.94 96.72)">__proto__</text></g><g id="Foo_" data-name="Foo()"><rect class="cls-7" x="326.53" y="42.62" width="100" height="20"/><text class="cls-21" transform="translate(365.6 56.98)">Foo()</text></g></g><g id="原型链"><text class="cls-6" transform="translate(176.3 334.6)">null</text><g id="图层_8" data-name="图层 8"><text class="cls-6" transform="translate(127.66 284.7)">__proto__</text><line class="cls-15" x1="187.33" y1="248.28" x2="187.33" y2="317.53"/><polygon class="cls-16" points="184.84 316.8 187.33 321.12 189.82 316.8 184.84 316.8"/></g><g id="Obj"><rect class="cls-9" x="137.33" y="228.28" width="100" height="20"/><text class="cls-8" transform="translate(139.58 241.76)">Object.prototype</text></g><g id="图层_7" data-name="图层 7"><text class="cls-6" transform="translate(127.66 191.87)">__proto__</text><line class="cls-15" x1="187.33" y1="155.45" x2="187.33" y2="224.69"/><polygon class="cls-16" points="184.84 223.97 187.33 228.28 189.82 223.97 184.84 223.97"/></g><g id="Foo"><rect class="cls-9" x="137.33" y="135.45" width="100" height="20"/><text class="cls-8" transform="translate(148.72 149.23)">Foo.prototype</text></g><g id="图层_6" data-name="图层 6"><line class="cls-15" x1="187.33" y1="62.62" x2="187.33" y2="131.86"/><polygon class="cls-16" points="184.84 131.13 187.33 135.45 189.82 131.13 184.84 131.13"/><text class="cls-6" transform="translate(127.66 99.03)">__proto__</text></g><g id="f1"><rect class="cls-9" x="137.33" y="42.62" width="100" height="20"/><text class="cls-8" transform="translate(183.11 57.21)">f1</text></g></g></svg>